<?xml version="1.0" standalone="no"?>
<!DOCTYPE svg PUBLIC "-//W3C//DTD SVG 20010904//EN"
 "http://www.w3.org/TR/2001/REC-SVG-20010904/DTD/svg10.dtd">
<svg version="1.0" xmlns="http://www.w3.org/2000/svg"
 width="1448.000000pt" height="1086.000000pt" viewBox="0 0 1448.000000 1086.000000"
 preserveAspectRatio="xMidYMid meet">

<g transform="translate(0.000000,1086.000000) scale(0.100000,-0.100000)"
fill="#000000" stroke="none">
<path d="M8070 9550 c-183 -23 -376 -104 -576 -241 -100 -68 -297 -264 -353
-349 -83 -127 -161 -312 -186 -437 -17 -84 -41 -38 -58 107 -12 102 -13 105
-39 108 -32 4 -71 -42 -145 -168 -140 -240 -224 -547 -225 -817 0 -75 -4 -133
-9 -133 -16 0 -68 90 -84 145 -19 65 -36 82 -70 67 -37 -17 -48 -76 -48 -247
0 -130 3 -162 25 -240 49 -174 114 -289 237 -417 86 -91 83 -64 27 -313 -38
-170 -62 -358 -52 -399 8 -33 59 -60 95 -51 49 12 61 32 61 104 0 110 53 466
75 500 4 7 59 11 152 11 239 0 410 46 623 168 164 94 345 268 411 394 23 45
23 52 4 72 -13 13 -34 14 -125 9 -64 -3 -110 -2 -110 3 0 5 29 28 63 51 131
88 298 251 404 393 140 187 274 492 243 550 -13 24 -24 24 -115 5 -38 -8 -71
-12 -74 -9 -3 2 29 39 71 82 163 167 230 322 231 537 1 201 -9 379 -21 402
-47 86 -244 137 -432 113z m251 -125 c24 -9 54 -25 66 -37 21 -19 23 -30 22
-97 -1 -42 1 -123 6 -181 16 -228 -54 -393 -247 -575 -87 -83 -190 -150 -325
-211 -90 -40 -98 -46 -98 -71 0 -39 34 -41 144 -8 98 28 293 65 348 65 33 0
35 -1 28 -27 -23 -97 -165 -331 -261 -433 -23 -25 -52 -57 -63 -72 -32 -41
-238 -210 -317 -262 -100 -64 -265 -143 -352 -168 -51 -15 -79 -29 -89 -45
-33 -50 32 -68 133 -38 69 20 221 43 343 51 l103 7 -7 -24 c-18 -62 -214 -221
-360 -293 -181 -90 -328 -122 -530 -117 -84 2 -92 9 -76 63 18 62 107 308 148
408 183 448 483 952 748 1260 84 96 124 141 167 185 57 60 66 105 22 105 -21
0 -53 -25 -137 -107 -289 -284 -580 -707 -800 -1163 -49 -102 -93 -196 -99
-210 -6 -14 -16 -38 -23 -55 -17 -38 -47 -113 -75 -190 -12 -33 -29 -75 -36
-93 -8 -18 -14 -36 -14 -41 0 -5 -7 -25 -16 -46 l-15 -38 -40 39 c-129 126
-219 311 -234 485 l-6 74 28 -31 c15 -18 63 -77 106 -133 69 -89 82 -102 105
-99 34 4 34 26 2 158 -19 78 -23 124 -24 260 -1 177 15 296 59 440 50 162 140
359 157 342 4 -4 15 -35 23 -67 9 -32 35 -104 59 -159 24 -56 47 -112 51 -126
10 -34 24 -50 44 -50 39 1 43 13 46 166 3 151 13 207 66 368 75 232 274 467
529 626 201 126 361 179 541 180 71 0 121 -5 150 -15z"/>
<path d="M2162 9404 c-106 -39 -201 -172 -223 -314 -42 -269 76 -542 281 -651
63 -34 195 -34 257 -1 63 33 117 91 151 163 38 82 52 149 52 256 0 126 -17
207 -62 303 -48 100 -139 198 -215 232 -63 28 -181 34 -241 12z m210 -142
c124 -72 194 -233 186 -421 -6 -121 -28 -188 -82 -245 -84 -91 -194 -80 -293
27 -138 149 -172 418 -75 577 56 91 170 118 264 62z"/>
<path d="M3205 9407 c-62 -21 -96 -42 -145 -90 -97 -93 -154 -216 -181 -385
-15 -94 -6 -170 33 -289 63 -191 249 -280 422 -200 81 37 171 131 218 227 60
123 72 178 73 325 0 113 -3 138 -23 190 -38 96 -95 163 -177 207 -50 26 -162
34 -220 15z m175 -132 c77 -41 121 -129 128 -258 12 -236 -140 -477 -300 -477
-79 0 -138 45 -180 135 -20 44 -23 65 -22 175 1 142 19 212 77 302 48 73 87
108 149 129 56 20 102 18 148 -6z"/>
<path d="M12930 9380 c-412 -35 -1013 -312 -1561 -721 -348 -260 -690 -583
-950 -899 -30 -36 -56 -67 -59 -70 -59 -57 -420 -580 -420 -609 0 -5 -17 -32
-39 -61 -56 -74 -69 -145 -46 -240 30 -123 84 -176 261 -254 163 -72 390 -130
602 -156 117 -13 435 -14 531 0 396 56 654 195 841 455 55 77 66 86 180 144
229 118 413 290 587 551 193 289 470 827 571 1110 62 175 66 196 67 350 0 139
-1 147 -27 197 -85 160 -262 227 -538 203z m282 -130 c101 -31 183 -127 176
-203 -3 -30 -6 -32 -43 -35 -387 -25 -695 -117 -1159 -344 -134 -65 -143 -64
-196 17 -32 50 -55 73 -96 96 -30 17 -54 37 -54 45 0 18 41 43 220 137 263
137 546 247 725 281 44 8 89 17 100 19 11 3 75 5 141 6 96 1 136 -3 186 -19z
m159 -321 c17 -9 19 -16 13 -57 -14 -95 -124 -389 -161 -433 -11 -14 -46 -17
-206 -22 -271 -8 -404 -38 -661 -149 l-138 -59 -142 -9 c-194 -13 -216 -13
-222 4 -7 18 142 258 183 298 55 53 471 245 713 330 151 52 374 94 573 106 16
1 37 -3 48 -9z m-1537 -183 c83 -35 147 -147 121 -212 -17 -43 -142 -250 -181
-302 -48 -63 -64 -73 -317 -204 -448 -232 -721 -414 -1032 -689 -125 -110
-235 -215 -287 -274 -64 -74 -86 -89 -102 -76 -17 14 -17 13 70 156 75 122
224 328 366 503 308 382 776 809 1166 1063 82 54 131 62 196 35z m1341 -406
c10 -17 -179 -390 -261 -517 -29 -44 -40 -52 -74 -58 -21 -4 -45 -3 -52 1 -7
4 -143 10 -303 13 l-290 6 -3 24 c-2 12 6 48 17 80 11 31 30 94 42 141 12 47
31 98 42 114 47 66 370 178 577 199 85 9 299 6 305 -3z m-1004 -210 c30 -17
24 -81 -21 -210 -26 -76 -49 -123 -67 -141 -16 -15 -80 -55 -145 -88 -64 -34
-167 -92 -230 -131 -62 -38 -137 -83 -165 -100 -39 -23 -115 -47 -285 -90
-339 -85 -716 -210 -928 -307 -41 -19 -88 -37 -105 -40 -28 -5 -27 -2 35 61
306 315 721 614 1190 858 301 157 330 168 493 183 186 16 205 17 228 5z m581
-429 c77 -9 79 -24 19 -114 -48 -71 -152 -208 -190 -249 -9 -10 -59 -55 -111
-101 -131 -113 -296 -209 -327 -188 -6 3 -12 47 -15 97 -6 100 -14 122 -66
177 -56 58 -174 91 -350 100 -29 1 -53 7 -54 12 -4 18 132 102 297 186 141 70
170 82 235 89 77 9 473 2 562 -9z m-890 -365 c42 -8 89 -21 105 -29 88 -47
116 -134 87 -275 -3 -14 -17 -28 -37 -37 -55 -23 -280 -44 -577 -55 -464 -17
-731 -31 -1232 -66 -68 -5 -98 -4 -98 4 0 20 351 172 570 247 229 78 614 184
830 229 44 9 273 -3 352 -18z m118 -467 c0 -34 -98 -137 -188 -197 -142 -95
-258 -143 -442 -183 -124 -27 -427 -37 -596 -20 -216 22 -450 83 -594 154 -70
35 -70 36 -54 115 4 22 13 34 28 37 82 17 663 52 1106 65 338 10 711 29 719
36 9 8 21 4 21 -7z"/>
<path d="M1459 8667 c-127 -48 -210 -195 -195 -346 15 -149 67 -261 171 -366
42 -42 90 -81 119 -94 205 -94 392 -7 442 206 17 70 17 81 3 167 -31 179 -143
343 -283 411 -70 34 -196 45 -257 22z m196 -131 c121 -56 214 -204 223 -354 7
-130 -31 -202 -123 -232 -75 -25 -180 21 -256 112 -85 102 -131 241 -111 337
30 142 138 198 267 137z"/>
<path d="M3878 8661 c-73 -29 -113 -57 -172 -122 -58 -65 -112 -160 -141 -249
-28 -85 -25 -219 8 -290 31 -69 77 -115 146 -147 46 -22 63 -25 135 -21 97 5
164 34 243 103 62 54 133 164 164 255 26 76 32 237 11 306 -17 57 -86 132
-147 160 -64 30 -177 32 -247 5z m199 -118 c19 -9 47 -34 61 -56 24 -36 27
-50 27 -126 0 -100 -24 -175 -81 -252 -76 -104 -162 -158 -250 -159 -168 -1
-219 224 -98 426 19 32 45 70 57 83 30 32 103 82 135 91 45 14 112 11 149 -7z"/>
<path d="M2605 8261 c-89 -27 -110 -37 -173 -80 -93 -65 -164 -140 -255 -269
-52 -74 -86 -110 -132 -144 -64 -46 -182 -166 -209 -212 -50 -86 -68 -162 -64
-271 3 -92 7 -106 42 -178 48 -96 121 -166 224 -215 63 -30 87 -36 167 -40
107 -5 188 14 307 74 90 45 166 64 260 64 106 0 166 -15 290 -71 127 -58 168
-68 271 -69 316 -1 533 309 429 613 -30 89 -86 162 -201 260 -113 96 -138 124
-209 231 -87 132 -225 247 -352 295 -90 34 -304 40 -395 12z m300 -115 c156
-43 220 -97 396 -334 36 -49 101 -117 158 -166 148 -128 179 -171 201 -283 21
-105 -17 -220 -96 -293 -55 -50 -105 -75 -182 -90 -83 -17 -141 -4 -285 59
-140 62 -171 70 -282 77 -117 8 -201 -10 -348 -74 -132 -58 -209 -76 -277 -67
-57 8 -154 52 -190 86 -126 120 -146 302 -48 446 26 39 55 66 181 173 59 49
126 125 175 200 50 75 146 170 207 206 120 70 271 93 390 60z"/>
<path d="M2215 6656 c-110 -18 -202 -49 -319 -109 -128 -67 -157 -111 -95
-146 24 -13 30 -11 95 27 148 88 315 133 499 133 148 1 228 -15 445 -87 254
-85 313 -98 465 -97 180 1 287 26 444 106 101 52 128 110 65 139 -20 9 -32 6
-81 -24 -146 -90 -276 -122 -466 -116 -142 5 -132 3 -487 126 -164 57 -384 76
-565 48z"/>
<path d="M2385 6298 c-92 -9 -171 -31 -245 -68 -56 -28 -60 -33 -60 -65 0 -56
26 -62 112 -26 207 86 342 82 637 -20 246 -84 397 -97 570 -49 94 26 129 45
143 75 9 21 8 29 -8 46 -21 24 -38 22 -129 -12 -75 -27 -245 -37 -338 -20 -34
7 -141 39 -239 72 -192 65 -299 81 -443 67z"/>
<path d="M6948 4957 c-65 -33 -377 -349 -480 -487 -184 -249 -304 -486 -367
-725 -85 -327 -66 -661 54 -960 88 -217 186 -364 352 -527 108 -107 163 -151
284 -226 52 -33 99 -70 106 -83 6 -13 17 -71 23 -129 6 -58 20 -145 31 -195
17 -73 26 -95 51 -119 27 -24 36 -27 72 -23 42 6 76 35 76 65 0 9 -16 53 -35
98 -42 97 -78 256 -65 288 5 13 47 46 102 78 140 84 212 140 328 257 232 232
363 482 419 794 38 210 37 373 -3 588 -66 355 -279 735 -601 1068 -120 124
-257 247 -284 254 -11 3 -39 -5 -63 -16z m237 -298 c312 -321 521 -680 589
-1009 40 -199 44 -324 17 -515 -55 -370 -234 -667 -556 -923 -55 -44 -180
-122 -195 -122 -14 0 -19 27 -26 160 l-6 126 33 54 c76 125 190 273 335 434
49 54 107 121 129 148 37 48 38 51 24 76 -10 19 -24 28 -45 30 -28 3 -41 -7
-121 -95 -50 -54 -117 -129 -149 -168 -33 -38 -69 -81 -82 -95 -13 -14 -38
-48 -57 -76 -67 -101 -65 -107 -65 180 0 283 0 281 66 384 62 94 226 301 318
400 74 79 86 97 86 127 0 35 -20 55 -54 55 -27 0 -289 -289 -364 -403 -14 -21
-28 -34 -31 -30 -4 4 -4 94 0 198 4 105 7 276 8 382 1 181 0 193 -18 203 -11
5 -29 10 -40 10 -44 0 -48 -25 -61 -410 -14 -437 -20 -542 -31 -538 -4 2 -43
51 -87 109 -121 163 -251 309 -275 309 -28 0 -57 -28 -57 -56 0 -13 23 -50 53
-85 144 -171 224 -274 291 -374 l75 -110 3 -458 c2 -376 1 -457 -10 -457 -31
0 -175 113 -288 225 -211 210 -343 449 -399 720 -22 109 -30 327 -16 453 32
293 174 605 419 921 75 97 299 331 356 372 l39 29 36 -29 c20 -16 90 -84 156
-152z"/>
<path d="M2807 4816 c-110 -30 -184 -117 -194 -225 -11 -119 35 -207 135 -257
35 -18 66 -34 69 -37 9 -10 32 -218 33 -298 0 -42 -7 -116 -15 -165 -46 -259
-123 -391 -378 -640 -176 -173 -228 -233 -297 -342 -25 -39 -48 -71 -52 -72
-32 -2 -11 292 34 475 31 125 117 355 145 386 8 10 34 20 58 23 58 9 136 78
153 134 25 84 9 163 -46 221 -78 82 -211 88 -295 13 -95 -87 -103 -213 -17
-306 l38 -41 -25 -60 c-67 -163 -136 -397 -147 -499 -4 -32 -9 -63 -12 -68 -6
-9 -24 11 -68 77 -15 22 -61 77 -103 123 l-76 84 22 39 c63 112 22 263 -87
322 -61 33 -116 42 -172 27 -68 -17 -116 -54 -150 -113 -24 -42 -30 -64 -30
-113 0 -158 123 -264 272 -236 l47 9 67 -66 c179 -176 268 -362 290 -601 16
-184 -102 -463 -291 -685 -99 -117 -106 -130 -96 -158 25 -66 86 -50 163 43
29 36 61 76 70 91 35 56 124 142 172 167 41 21 65 26 121 27 91 0 136 -26 254
-144 47 -48 106 -99 131 -114 94 -54 247 -74 291 -39 28 23 30 73 3 103 -17
19 -25 20 -95 14 -106 -9 -154 12 -252 113 -41 43 -87 87 -103 99 -39 30 -27
37 109 57 146 23 296 78 379 139 27 20 30 20 76 4 99 -36 198 -10 253 66 25
35 29 49 29 109 0 79 -13 111 -64 156 -64 56 -133 65 -213 28 -72 -34 -104
-86 -111 -179 -5 -67 -6 -70 -46 -99 -97 -72 -215 -107 -461 -139 -88 -11
-186 -30 -219 -40 -32 -11 -60 -18 -62 -16 -2 2 14 55 35 118 22 63 49 150 61
194 48 174 134 314 233 380 99 66 149 77 377 86 162 6 221 12 280 29 105 30
204 85 278 154 65 61 166 201 177 248 10 37 21 44 86 51 105 10 176 67 205
165 20 64 17 100 -10 157 -54 116 -163 168 -281 135 -91 -26 -175 -136 -175
-230 0 -39 28 -108 58 -144 19 -23 23 -37 18 -64 -8 -51 -89 -173 -154 -234
-121 -111 -221 -143 -481 -152 -95 -3 -184 -9 -197 -12 -13 -3 -24 -2 -24 2 0
5 41 49 90 97 272 269 369 571 327 1027 l-8 85 46 24 c191 101 188 387 -5 470
-65 28 -116 33 -173 17z m140 -126 c68 -41 89 -116 55 -194 -17 -37 -30 -51
-64 -66 -56 -25 -84 -25 -138 3 -137 68 -85 277 69 277 28 0 59 -8 78 -20z
m-585 -730 c85 -67 39 -200 -70 -200 -40 0 -100 53 -103 90 -4 51 2 69 32 99
25 25 39 31 73 31 28 0 52 -7 68 -20z m1248 -141 c41 -23 70 -73 70 -119 0
-69 -73 -136 -139 -127 -132 17 -163 177 -49 247 42 25 71 25 118 -1z m-1981
-208 c59 -42 78 -105 51 -170 -40 -97 -202 -91 -237 9 -43 122 85 233 186 161z
m1464 -1041 c44 -49 28 -125 -32 -150 -35 -14 -65 -8 -101 19 -20 16 -25 29
-25 66 0 40 5 51 34 77 41 37 82 33 124 -12z"/>
<path d="M1928 4624 c-41 -21 -61 -68 -54 -119 8 -48 37 -81 86 -95 68 -20
150 46 150 120 0 83 -104 137 -182 94z"/>
<path d="M11323 4585 c-12 -8 -24 -29 -28 -46 -30 -134 -140 -322 -252 -430
-158 -152 -336 -237 -538 -258 -108 -12 -111 -16 -117 -178 -9 -216 -81 -366
-236 -488 -97 -78 -280 -155 -366 -155 -14 0 -36 -10 -47 -21 -31 -31 -22 -98
29 -203 124 -259 311 -425 572 -507 67 -21 94 -24 245 -24 197 0 257 13 408
93 150 79 280 205 346 335 14 28 33 53 41 55 10 1 27 -21 49 -65 45 -88 197
-242 296 -300 196 -115 407 -150 636 -107 88 16 249 85 332 142 59 41 159 144
211 217 75 104 146 258 146 314 0 38 -36 67 -93 75 -141 21 -284 94 -393 201
-134 131 -186 264 -185 463 1 116 -10 137 -71 146 -216 31 -312 63 -436 146
-145 95 -221 174 -310 320 -36 61 -92 201 -92 232 0 8 -10 24 -23 36 -28 26
-92 30 -124 7z m74 -197 c5 -13 20 -45 32 -73 122 -272 396 -491 699 -560 87
-20 87 -22 32 -129 -121 -237 -304 -391 -547 -461 -289 -84 -594 -8 -815 203
-92 88 -154 173 -204 280 -41 87 -38 95 39 107 175 30 407 167 540 319 61 70
167 232 167 255 0 15 33 81 40 81 4 0 11 -10 17 -22z m-860 -885 c67 -117 194
-252 309 -328 111 -74 332 -155 423 -155 53 0 57 -11 38 -90 -54 -224 -242
-425 -472 -503 -210 -71 -388 -60 -592 38 -114 56 -237 168 -311 283 -54 86
-87 161 -75 173 4 4 37 15 73 24 200 51 389 196 487 375 33 60 73 169 73 198
0 17 8 32 16 32 2 0 15 -21 31 -47z m1742 16 c6 -18 11 -41 11 -51 0 -30 39
-116 85 -188 105 -162 280 -288 468 -336 36 -9 68 -22 71 -29 12 -32 -98 -206
-190 -299 -175 -178 -431 -266 -660 -225 -142 25 -266 80 -370 166 -57 46
-156 168 -188 232 -27 53 -72 208 -63 217 3 3 52 14 109 24 209 36 368 121
528 280 63 62 132 152 157 204 21 44 28 45 42 5z"/>
<path d="M3887 4392 c-33 -20 -62 -90 -53 -128 4 -15 20 -39 36 -55 24 -24 37
-29 78 -29 41 0 55 5 81 29 30 28 36 50 31 110 -6 75 -104 116 -173 73z"/>
<path d="M3967 3206 c-80 -29 -121 -91 -121 -183 0 -54 5 -69 30 -105 41 -58
86 -83 154 -83 67 1 124 30 160 82 21 31 25 48 25 108 0 62 -4 77 -28 113 -48
68 -142 97 -220 68z m96 -97 c88 -45 67 -169 -28 -169 -44 0 -95 45 -95 83 0
40 52 93 93 96 5 1 18 -4 30 -10z"/>
<path d="M1389 2855 c-60 -33 -80 -126 -37 -180 60 -76 163 -63 203 26 17 37
17 44 3 82 -26 73 -105 107 -169 72z"/>
<path d="M3592 2363 c-72 -35 -99 -121 -63 -196 26 -53 67 -77 134 -77 50 0
104 30 125 70 21 41 11 134 -19 166 -48 52 -117 67 -177 37z"/>
<path d="M10360 1953 c-116 -12 -280 -64 -379 -120 -98 -56 -123 -101 -80
-144 25 -25 47 -21 126 25 73 43 206 89 303 107 41 7 140 13 220 13 163 0 286
-21 550 -95 317 -89 421 -109 571 -109 142 0 255 24 524 110 66 21 155 46 197
54 150 31 327 15 445 -41 67 -31 112 -28 132 8 13 24 13 29 -3 54 -10 15 -45
40 -79 56 -202 93 -417 90 -732 -11 -238 -77 -298 -90 -435 -97 -152 -7 -272
10 -475 68 -376 107 -503 130 -711 127 -77 0 -155 -3 -174 -5z"/>
</g>
</svg>
