<?xml version="1.0" standalone="no"?>
<!DOCTYPE svg PUBLIC "-//W3C//DTD SVG 20010904//EN"
 "http://www.w3.org/TR/2001/REC-SVG-20010904/DTD/svg10.dtd">
<svg version="1.0" xmlns="http://www.w3.org/2000/svg"
 width="500.000000pt" height="500.000000pt" viewBox="0 0 500.000000 500.000000"
 preserveAspectRatio="xMidYMid meet">

<g transform="translate(0.000000,500.000000) scale(0.100000,-0.100000)"
fill="#000000" stroke="none">
<path d="M2305 4750 c-153 -12 -242 -29 -470 -89 -58 -15 -262 -99 -355 -146
-90 -45 -298 -175 -330 -206 -8 -8 -32 -27 -53 -43 -116 -86 -320 -307 -414
-446 -112 -167 -152 -241 -218 -395 -74 -174 -128 -364 -156 -550 -19 -120
-19 -501 0 -615 94 -593 346 -1026 815 -1404 521 -419 1185 -577 1830 -436
581 127 1086 487 1377 979 232 391 330 735 330 1163 0 251 -24 421 -92 643
-88 286 -227 550 -399 760 -71 86 -243 253 -330 322 -294 230 -675 391 -1055
447 -129 19 -353 27 -480 16z m418 -230 c169 -24 270 -48 407 -95 121 -42 295
-124 328 -155 24 -22 28 -59 12 -90 -12 -22 -161 -123 -205 -140 -30 -11 -42
-7 -145 53 -25 14 -72 33 -105 42 -107 28 -156 3 -257 -131 -99 -132 -114
-186 -63 -234 35 -33 93 -37 135 -8 28 19 38 35 50 79 17 63 34 89 59 89 31 0
41 -22 41 -92 0 -121 -37 -163 -159 -178 -57 -8 -95 -18 -122 -35 -21 -14 -49
-25 -62 -25 -27 0 -58 31 -76 77 -17 42 -44 66 -77 66 -36 0 -63 -31 -85 -97
-23 -71 -14 -100 38 -123 62 -28 83 -52 83 -95 0 -47 -25 -74 -77 -84 -87 -16
-123 -57 -123 -139 0 -38 5 -52 29 -76 24 -24 38 -29 76 -29 64 0 98 21 144
88 48 70 76 97 123 117 83 34 163 10 209 -64 16 -25 29 -53 29 -63 0 -11 11
-30 25 -44 28 -28 53 -26 86 7 26 26 38 24 79 -16 30 -29 46 -36 100 -43 92
-13 128 -64 79 -113 -20 -20 -29 -21 -115 -16 -81 6 -101 3 -161 -17 -40 -14
-81 -22 -99 -19 -36 6 -81 44 -106 92 -12 21 -34 39 -65 53 -40 18 -60 20
-137 15 -184 -12 -327 -93 -420 -241 -55 -86 -71 -140 -71 -241 1 -81 4 -96
34 -158 65 -131 146 -178 316 -184 61 -3 122 -9 137 -15 40 -15 65 -63 71
-139 3 -36 16 -90 28 -120 16 -40 23 -86 28 -179 4 -69 10 -131 15 -138 6 -10
15 -2 34 30 148 256 151 258 348 258 90 0 148 5 163 13 26 13 46 44 131 203
l53 100 -26 55 c-14 30 -43 83 -63 119 -86 151 -98 197 -70 265 43 102 240
447 272 475 l35 30 173 0 c95 0 186 5 202 10 25 9 42 34 103 153 84 162 91
172 119 163 22 -7 62 -83 62 -118 0 -13 -36 -86 -79 -163 l-78 -140 -214 -5
c-118 -3 -222 -9 -232 -14 -16 -8 -87 -107 -87 -122 0 -3 -8 -18 -19 -32 -10
-15 -29 -47 -43 -72 -14 -25 -46 -82 -72 -126 -25 -45 -46 -93 -46 -106 0 -22
17 -55 151 -289 27 -48 49 -90 49 -95 0 -12 -190 -355 -208 -376 -13 -16 -36
-18 -194 -18 -134 0 -186 -4 -206 -14 -29 -15 -40 -31 -172 -250 l-86 -141
-229 -5 c-173 -4 -235 -8 -251 -19 -22 -15 -26 -21 -172 -266 -118 -198 -119
-202 -44 -328 28 -49 52 -91 52 -93 0 -2 16 -28 35 -58 40 -62 44 -86 15 -86
-10 0 -74 14 -142 31 -533 135 -1002 494 -1271 970 -125 222 -208 469 -237
704 -12 98 -15 364 -5 441 22 176 36 217 65 199 23 -14 44 -74 50 -143 10
-108 38 -143 165 -207 119 -59 153 -83 220 -150 28 -28 65 -57 83 -64 41 -17
49 -49 29 -115 -63 -204 -37 -303 120 -457 46 -46 91 -99 99 -118 8 -19 14
-67 14 -115 0 -92 23 -297 41 -371 18 -73 61 -165 97 -207 57 -64 141 -88 177
-48 17 18 17 23 0 89 -14 58 -15 79 -6 123 18 83 122 249 213 340 91 91 104
113 124 218 8 44 28 108 44 142 73 155 38 238 -124 287 -96 30 -132 55 -161
112 -32 63 -68 95 -130 116 -32 10 -70 35 -105 68 -30 28 -68 56 -83 63 -43
18 -130 14 -191 -9 -84 -31 -115 -24 -146 32 -14 25 -38 57 -54 73 -24 23 -27
32 -21 62 13 73 -45 107 -110 64 -62 -41 -105 -12 -105 68 0 57 25 110 64 133
45 27 144 26 180 -2 14 -11 26 -25 26 -32 0 -18 42 -57 62 -57 28 0 45 39 50
115 6 86 23 119 94 187 30 29 74 78 96 108 86 114 131 149 208 164 83 17 131
38 154 69 57 76 47 127 -39 212 -84 82 -92 116 -45 193 13 22 27 32 44 32 15
0 34 -12 51 -32 35 -43 62 -57 104 -58 65 0 141 106 141 198 0 114 -99 181
-249 169 -98 -8 -175 -35 -286 -101 -173 -103 -264 -138 -304 -117 -44 24 -19
58 122 164 405 305 948 447 1440 377z m1673 -1382 c28 -84 64 -254 71 -340 6
-64 5 -68 -15 -68 -16 0 -34 24 -80 108 -33 59 -69 124 -81 145 -34 60 -31 73
39 190 12 21 27 36 34 34 6 -2 20 -33 32 -69z m-264 -190 c14 -11 108 -162
108 -174 0 -2 14 -26 30 -52 37 -60 37 -84 4 -142 -15 -25 -51 -90 -81 -145
-31 -55 -60 -103 -67 -107 -20 -14 -350 -9 -368 5 -18 14 -178 293 -178 311 0
6 16 37 35 69 19 32 35 60 35 62 0 11 94 162 108 173 11 8 65 12 187 12 122 0
176 -4 187 -12z m341 -498 c-3 -162 -49 -420 -76 -420 -16 1 -127 196 -127
223 0 22 142 288 167 313 32 31 38 11 36 -116z m-335 -282 c23 -29 163 -275
169 -297 6 -25 -2 -42 -110 -240 -48 -89 -68 -116 -88 -122 -14 -3 -99 -5
-188 -4 -123 2 -166 6 -176 16 -19 20 -185 308 -185 321 0 10 114 216 167 301
l23 37 189 0 c139 0 191 -3 199 -12z m-658 -492 c16 -25 30 -47 30 -50 0 -3
19 -38 43 -78 70 -121 70 -120 55 -148 -7 -14 -51 -91 -98 -173 l-84 -147
-186 2 -185 3 -82 140 c-45 77 -82 148 -82 157 -1 23 30 79 162 291 l29 47
184 0 183 0 31 -44z m574 -325 c24 -39 -413 -451 -453 -427 -13 8 -41 65 -41
84 0 16 163 306 188 335 13 15 34 17 158 17 79 0 145 -4 148 -9z m-1296 -70
c15 -16 36 -46 47 -67 10 -22 27 -50 36 -64 9 -14 33 -56 54 -94 42 -77 44
-59 -26 -186 -20 -36 -53 -96 -74 -135 -61 -113 -41 -105 -255 -105 -166 0
-189 2 -202 18 -14 17 -88 140 -88 147 0 2 -20 38 -45 79 -25 42 -45 83 -45
92 0 15 123 231 174 307 l26 37 186 0 186 0 26 -29z m690 -398 c13 -24 20 -47
17 -53 -24 -40 -401 -191 -512 -207 -61 -8 -65 -23 65 217 19 36 39 71 45 78
7 9 53 12 186 10 l176 -3 23 -42z"/>
</g>
</svg>
