<?xml version="1.0" standalone="no"?>
<!DOCTYPE svg PUBLIC "-//W3C//DTD SVG 20010904//EN"
 "http://www.w3.org/TR/2001/REC-SVG-20010904/DTD/svg10.dtd">
<svg version="1.0" xmlns="http://www.w3.org/2000/svg"
 width="525.000000pt" height="214.000000pt" viewBox="0 0 525.000000 214.000000"
 preserveAspectRatio="xMidYMid meet">

<g transform="translate(0.000000,214.000000) scale(0.100000,-0.100000)"
fill="#000000" stroke="none">
<path d="M2463 1729 c-100 -19 -188 -90 -216 -174 -24 -69 -25 -669 -2 -735
35 -99 120 -162 246 -181 165 -26 317 17 386 109 53 70 64 126 61 303 l-3 154
-192 3 -193 2 0 -90 0 -90 95 0 95 0 0 -66 c0 -110 -44 -154 -154 -154 -68 0
-115 18 -144 55 -21 27 -22 35 -22 320 0 281 1 293 21 319 34 43 70 56 156 56
92 0 134 -20 160 -75 9 -19 23 -35 30 -35 22 0 163 81 163 93 0 23 -71 115
-108 141 -20 14 -64 32 -97 41 -63 16 -211 19 -282 4z"/>
<path d="M3085 1708 c-3 -7 -4 -247 -3 -533 l3 -520 240 0 c273 0 304 6 381
77 61 56 87 124 88 228 1 90 -15 137 -70 203 l-24 29 25 30 c52 61 69 108 69
183 0 89 -16 143 -57 197 -41 53 -85 84 -150 103 -67 20 -495 22 -502 3z m455
-183 c62 -32 81 -138 35 -193 -37 -45 -69 -53 -185 -50 l-105 3 -3 128 -3 127
116 0 c84 0 124 -4 145 -15z m26 -459 c31 -31 34 -40 34 -90 0 -119 -37 -146
-205 -146 l-115 0 0 135 0 135 126 0 126 0 34 -34z"/>
<path d="M3960 1185 l0 -535 95 0 95 0 0 535 0 535 -95 0 -95 0 0 -535z"/>
<path d="M4370 1185 l0 -535 95 0 95 0 0 225 0 225 183 2 182 3 0 85 0 85
-180 5 -180 5 0 125 0 125 215 5 215 5 3 88 3 87 -316 0 -315 0 0 -535z"/>
</g>
</svg>
