<?xml version="1.0" standalone="no"?>
<!DOCTYPE svg PUBLIC "-//W3C//DTD SVG 20010904//EN"
 "http://www.w3.org/TR/2001/REC-SVG-20010904/DTD/svg10.dtd">
<svg version="1.0" xmlns="http://www.w3.org/2000/svg"
 width="577.000000pt" height="433.000000pt" viewBox="0 0 577.000000 433.000000"
 preserveAspectRatio="xMidYMid meet">

<g transform="translate(0.000000,433.000000) scale(0.100000,-0.100000)"
fill="#000000" stroke="none">
<path d="M3133 3741 c-165 -60 -330 -250 -373 -429 -7 -29 -14 -51 -17 -48 -3
2 -10 28 -17 58 -6 29 -16 52 -21 51 -19 -3 -76 -122 -96 -202 -14 -55 -20
-104 -17 -151 3 -78 -6 -84 -37 -27 -32 60 -55 45 -55 -36 0 -81 44 -181 96
-220 l24 -18 38 78 c73 151 172 315 226 378 17 19 -1 -25 -51 -125 -99 -197
-123 -250 -167 -380 -56 -167 -58 -220 -5 -220 23 0 34 22 43 80 4 25 14 66
22 93 14 42 19 47 44 47 96 0 212 48 298 123 99 86 121 146 47 126 -20 -6 -52
-9 -73 -7 l-37 3 59 29 c33 16 90 58 127 93 54 52 77 84 113 156 37 75 70 187
55 187 -2 0 -22 -7 -44 -15 -71 -25 -78 -18 -29 27 66 60 88 109 88 188 0 152
-92 214 -241 161z"/>
<path d="M981 3616 c-44 -16 -68 -46 -87 -112 -16 -56 -14 -83 13 -167 19 -62
77 -107 136 -107 56 0 110 55 125 127 34 155 -71 301 -187 259z"/>
<path d="M1349 3605 c-31 -17 -76 -80 -89 -126 -14 -49 -12 -134 4 -173 21
-50 60 -76 116 -76 39 0 53 6 87 35 91 77 103 261 22 330 -35 29 -97 33 -140
10z"/>
<path d="M3932 3608 c-22 -29 -21 -63 4 -214 47 -286 77 -350 178 -379 28 -8
65 -16 81 -18 l30 -3 -36 -17 c-150 -68 -172 -202 -55 -333 75 -85 158 -114
225 -80 65 34 134 148 160 266 7 30 15 64 18 74 3 12 17 -19 37 -85 64 -211
151 -295 268 -260 50 16 122 81 159 146 59 103 26 205 -85 262 l-51 26 60 12
c83 17 107 28 141 67 34 38 41 63 78 253 39 198 42 239 21 271 -16 25 -20 26
-80 22 -76 -7 -139 -38 -229 -117 -126 -109 -213 -233 -276 -389 -29 -74 -50
-97 -50 -55 0 21 -75 179 -108 228 -105 157 -217 262 -333 315 -50 22 -141 27
-157 8z"/>
<path d="M641 3355 c-62 -53 -66 -160 -8 -255 113 -187 323 -57 236 147 -49
115 -158 166 -228 108z"/>
<path d="M1638 3330 c-89 -47 -147 -196 -107 -273 61 -114 213 -69 272 81 58
146 -39 258 -165 192z"/>
<path d="M1090 3169 c-59 -26 -82 -49 -141 -136 -27 -40 -53 -73 -57 -73 -15
0 -90 -77 -107 -111 -25 -47 -24 -133 3 -185 11 -22 40 -53 63 -70 60 -41 147
-41 238 0 56 25 73 28 130 24 42 -4 82 -14 110 -29 58 -30 151 -31 206 -3 64
33 98 84 103 153 6 89 -9 121 -94 197 -40 36 -84 83 -95 103 -61 101 -143 151
-249 150 -42 0 -81 -7 -110 -20z"/>
<path d="M1175 1950 c-86 -35 -93 -155 -11 -194 l36 -17 0 -88 c0 -101 -19
-176 -61 -241 -29 -45 -239 -259 -239 -243 0 37 32 189 50 236 18 48 28 62 55
73 70 29 85 95 35 146 -27 26 -36 30 -67 25 -19 -4 -44 -14 -54 -23 -28 -25
-35 -79 -14 -110 16 -25 16 -29 -9 -88 -14 -33 -30 -85 -36 -115 -6 -30 -12
-56 -14 -58 -2 -3 -18 15 -34 39 -17 24 -37 50 -45 56 -10 9 -13 25 -10 57 5
39 2 47 -25 75 -41 40 -83 41 -123 1 -31 -31 -38 -75 -18 -113 13 -24 74 -51
99 -43 42 13 119 -129 127 -235 7 -85 -26 -183 -88 -265 -24 -31 -48 -63 -53
-70 -15 -20 1 -45 28 -45 16 0 45 17 76 45 85 76 147 79 236 11 78 -60 168
-70 198 -23 20 32 -4 51 -72 57 -52 4 -66 10 -93 36 l-31 32 72 23 c40 12 88
33 106 45 28 19 38 21 63 13 80 -28 145 94 79 148 -57 48 -137 8 -143 -72 -1
-23 -66 -59 -135 -74 -131 -30 -175 -39 -178 -37 -1 2 10 34 24 73 52 141 129
208 254 219 109 10 185 40 240 94 26 26 51 57 55 69 4 13 15 21 28 21 40 0 85
36 92 73 12 60 -25 106 -85 107 -67 0 -113 -60 -91 -121 13 -39 5 -55 -54
-107 -48 -42 -104 -62 -176 -62 l-43 0 26 28 c79 84 123 221 115 356 -6 86 -5
91 19 112 32 31 34 109 3 143 -34 36 -75 48 -114 31z"/>
<path d="M2700 1863 c-47 -49 -107 -120 -132 -158 -58 -88 -115 -226 -129
-314 -17 -110 6 -250 59 -356 40 -81 136 -179 216 -221 54 -28 54 -29 61 -84
12 -105 36 -141 80 -124 18 7 18 29 -1 134 -6 35 -5 37 53 73 92 56 177 146
221 233 74 145 87 309 37 464 -43 136 -140 279 -258 385 -89 79 -100 77 -207
-32z m130 -421 c0 -97 10 -182 21 -182 5 0 27 18 50 41 29 29 44 38 52 30 8
-8 -7 -37 -52 -103 l-64 -92 -8 -105 c-4 -58 -8 -115 -8 -125 -1 -13 -4 -17
-11 -10 -5 5 -13 57 -16 114 -7 114 -10 122 -78 223 -42 62 -58 107 -38 107 4
0 26 -23 50 -50 24 -28 47 -50 52 -50 4 0 11 57 15 128 7 138 12 165 26 157 5
-4 9 -41 9 -83z"/>
<path d="M816 1834 c-23 -22 -20 -71 3 -84 44 -23 91 -1 91 44 0 47 -62 73
-94 40z"/>
<path d="M4430 1819 c-19 -6 -47 -22 -62 -37 -49 -45 -49 -47 22 -527 17 -115
29 -216 28 -224 -2 -9 -25 95 -51 229 -85 432 -92 451 -158 465 -41 9 -114
-26 -139 -67 -33 -54 -25 -96 50 -253 15 -33 58 -123 94 -200 37 -77 76 -157
87 -178 11 -20 19 -42 17 -47 -3 -9 -78 124 -176 310 -119 227 -123 232 -171
228 -46 -4 -81 -53 -81 -113 0 -55 24 -91 203 -305 80 -96 143 -177 140 -180
-2 -3 -14 6 -25 19 -24 30 -195 217 -260 284 -52 54 -75 57 -96 15 -18 -39 0
-99 45 -149 40 -44 140 -126 256 -209 43 -30 77 -55 77 -55 0 -1 -15 1 -34 3
-29 3 -34 1 -40 -21 -9 -36 9 -76 39 -87 15 -6 53 -10 85 -10 42 0 72 -7 102
-22 59 -31 149 -31 199 0 29 17 51 22 106 22 56 0 76 4 97 21 44 35 33 99 -18
99 -27 1 -29 2 -12 12 10 5 71 50 135 98 183 137 231 194 231 273 0 36 -15 57
-41 57 -15 0 -187 -174 -313 -315 -20 -22 -36 -36 -36 -32 0 8 57 79 219 271
51 61 100 125 107 143 31 72 9 162 -43 181 -56 19 -66 8 -173 -193 -105 -198
-193 -355 -197 -351 -2 2 23 59 55 127 102 212 158 332 186 391 37 80 35 137
-5 183 -54 61 -136 69 -182 17 -14 -16 -42 -141 -109 -477 -16 -82 -34 -166
-39 -185 -7 -31 -8 -29 -4 15 2 28 15 127 29 220 68 467 68 460 30 504 -14 18
-34 35 -43 40 -28 15 -95 20 -131 10z"/>
<path d="M1590 1727 c-19 -10 -25 -20 -25 -47 0 -29 5 -36 28 -44 39 -14 62 2
62 44 0 43 -29 65 -65 47z"/>
<path d="M1623 1271 c-31 -29 -37 -58 -18 -87 36 -55 95 -54 131 2 17 25 17
28 -2 63 -15 29 -25 37 -54 39 -24 2 -42 -3 -57 -17z"/>
<path d="M580 1111 c-22 -41 1 -81 45 -81 45 0 67 67 31 92 -22 15 -65 8 -76
-11z"/>
<path d="M1490 948 c-41 -45 -14 -108 47 -108 57 0 84 69 43 110 -26 26 -64
25 -90 -2z"/>
</g>
</svg>
