<?xml version="1.0" encoding="UTF-8"?>
<svg xmlns="http://www.w3.org/2000/svg" width="490" height="370" viewBox="900 116 490 370" aria-label="Insect wing pattern figure">
  <g transform="rotate(-18 1145 301)">
    <g transform="translate(0,1086) scale(0.1,-0.1)" fill="#0f4a35" stroke="none">
    <path d="M12930 9380 c-412 -35 -1013 -312 -1561 -721 -348 -260 -690 -583
    -950 -899 -30 -36 -56 -67 -59 -70 -59 -57 -420 -580 -420 -609 0 -5 -17 -32
    -39 -61 -56 -74 -69 -145 -46 -240 30 -123 84 -176 261 -254 163 -72 390 -130
    602 -156 117 -13 435 -14 531 0 396 56 654 195 841 455 55 77 66 86 180 144
    229 118 413 290 587 551 193 289 470 827 571 1110 62 175 66 196 67 350 0 139
    -1 147 -27 197 -85 160 -262 227 -538 203z m282 -130 c101 -31 183 -127 176
    -203 -3 -30 -6 -32 -43 -35 -387 -25 -695 -117 -1159 -344 -134 -65 -143 -64
    -196 17 -32 50 -55 73 -96 96 -30 17 -54 37 -54 45 0 18 41 43 220 137 263
    137 546 247 725 281 44 8 89 17 100 19 11 3 75 5 141 6 96 1 136 -3 186 -19z
    m159 -321 c17 -9 19 -16 13 -57 -14 -95 -124 -389 -161 -433 -11 -14 -46 -17
    -206 -22 -271 -8 -404 -38 -661 -149 l-138 -59 -142 -9 c-194 -13 -216 -13
    -222 4 -7 18 142 258 183 298 55 53 471 245 713 330 151 52 374 94 573 106 16
    1 37 -3 48 -9z m-1537 -183 c83 -35 147 -147 121 -212 -17 -43 -142 -250 -181
    -302 -48 -63 -64 -73 -317 -204 -448 -232 -721 -414 -1032 -689 -125 -110
    -235 -215 -287 -274 -64 -74 -86 -89 -102 -76 -17 14 -17 13 70 156 75 122
    224 328 366 503 308 382 776 809 1166 1063 82 54 131 62 196 35z m1341 -406
    c10 -17 -179 -390 -261 -517 -29 -44 -40 -52 -74 -58 -21 -4 -45 -3 -52 1 -7
    4 -143 10 -303 13 l-290 6 -3 24 c-2 12 6 48 17 80 11 31 30 94 42 141 12 47
    31 98 42 114 47 66 370 178 577 199 85 9 299 6 305 -3z m-1004 -210 c30 -17
    24 -81 -21 -210 -26 -76 -49 -123 -67 -141 -16 -15 -80 -55 -145 -88 -64 -34
    -167 -92 -230 -131 -62 -38 -137 -83 -165 -100 -39 -23 -115 -47 -285 -90
    -339 -85 -716 -210 -928 -307 -41 -19 -88 -37 -105 -40 -28 -5 -27 -2 35 61
    306 315 721 614 1190 858 301 157 330 168 493 183 186 16 205 17 228 5z m581
    -429 c77 -9 79 -24 19 -114 -48 -71 -152 -208 -190 -249 -9 -10 -59 -55 -111
    -101 -131 -113 -296 -209 -327 -188 -6 3 -12 47 -15 97 -6 100 -14 122 -66
    177 -56 58 -174 91 -350 100 -29 1 -53 7 -54 12 -4 18 132 102 297 186 141 70
    170 82 235 89 77 9 473 2 562 -9z m-890 -365 c42 -8 89 -21 105 -29 88 -47
    116 -134 87 -275 -3 -14 -17 -28 -37 -37 -55 -23 -280 -44 -577 -55 -464 -17
    -731 -31 -1232 -66 -68 -5 -98 -4 -98 4 0 20 351 172 570 247 229 78 614 184
    830 229 44 9 273 -3 352 -18z m118 -467 c0 -34 -98 -137 -188 -197 -142 -95
    -258 -143 -442 -183 -124 -27 -427 -37 -596 -20 -216 22 -450 83 -594 154 -70
    35 -70 36 -54 115 4 22 13 34 28 37 82 17 663 52 1106 65 338 10 711 29 719
    36 9 8 21 4 21 -7z"/>
    </g>
  </g>
</svg>
