<?xml version="1.0" encoding="UTF-8"?>
<svg xmlns="http://www.w3.org/2000/svg" width="340" height="310" viewBox="110 566 340 310" aria-label="Fungi mycelium pattern figure">
  <g transform="rotate(-18 280 721)">
    <g transform="translate(0,1086) scale(0.1,-0.1)" fill="#0f4a35" stroke="none">
    <path d="M2807 4816 c-110 -30 -184 -117 -194 -225 -11 -119 35 -207 135 -257
    35 -18 66 -34 69 -37 9 -10 32 -218 33 -298 0 -42 -7 -116 -15 -165 -46 -259
    -123 -391 -378 -640 -176 -173 -228 -233 -297 -342 -25 -39 -48 -71 -52 -72
    -32 -2 -11 292 34 475 31 125 117 355 145 386 8 10 34 20 58 23 58 9 136 78
    153 134 25 84 9 163 -46 221 -78 82 -211 88 -295 13 -95 -87 -103 -213 -17
    -306 l38 -41 -25 -60 c-67 -163 -136 -397 -147 -499 -4 -32 -9 -63 -12 -68 -6
    -9 -24 11 -68 77 -15 22 -61 77 -103 123 l-76 84 22 39 c63 112 22 263 -87
    322 -61 33 -116 42 -172 27 -68 -17 -116 -54 -150 -113 -24 -42 -30 -64 -30
    -113 0 -158 123 -264 272 -236 l47 9 67 -66 c179 -176 268 -362 290 -601 16
    -184 -102 -463 -291 -685 -99 -117 -106 -130 -96 -158 25 -66 86 -50 163 43
    29 36 61 76 70 91 35 56 124 142 172 167 41 21 65 26 121 27 91 0 136 -26 254
    -144 47 -48 106 -99 131 -114 94 -54 247 -74 291 -39 28 23 30 73 3 103 -17
    19 -25 20 -95 14 -106 -9 -154 12 -252 113 -41 43 -87 87 -103 99 -39 30 -27
    37 109 57 146 23 296 78 379 139 27 20 30 20 76 4 99 -36 198 -10 253 66 25
    35 29 49 29 109 0 79 -13 111 -64 156 -64 56 -133 65 -213 28 -72 -34 -104
    -86 -111 -179 -5 -67 -6 -70 -46 -99 -97 -72 -215 -107 -461 -139 -88 -11
    -186 -30 -219 -40 -32 -11 -60 -18 -62 -16 -2 2 14 55 35 118 22 63 49 150 61
    194 48 174 134 314 233 380 99 66 149 77 377 86 162 6 221 12 280 29 105 30
    204 85 278 154 65 61 166 201 177 248 10 37 21 44 86 51 105 10 176 67 205
    165 20 64 17 100 -10 157 -54 116 -163 168 -281 135 -91 -26 -175 -136 -175
    -230 0 -39 28 -108 58 -144 19 -23 23 -37 18 -64 -8 -51 -89 -173 -154 -234
    -121 -111 -221 -143 -481 -152 -95 -3 -184 -9 -197 -12 -13 -3 -24 -2 -24 2 0
    5 41 49 90 97 272 269 369 571 327 1027 l-8 85 46 24 c191 101 188 387 -5 470
    -65 28 -116 33 -173 17z m140 -126 c68 -41 89 -116 55 -194 -17 -37 -30 -51
    -64 -66 -56 -25 -84 -25 -138 3 -137 68 -85 277 69 277 28 0 59 -8 78 -20z
    m-585 -730 c85 -67 39 -200 -70 -200 -40 0 -100 53 -103 90 -4 51 2 69 32 99
    25 25 39 31 73 31 28 0 52 -7 68 -20z m1248 -141 c41 -23 70 -73 70 -119 0
    -69 -73 -136 -139 -127 -132 17 -163 177 -49 247 42 25 71 25 118 -1z m-1981
    -208 c59 -42 78 -105 51 -170 -40 -97 -202 -91 -237 9 -43 122 85 233 186 161z
    m1464 -1041 c44 -49 28 -125 -32 -150 -35 -14 -65 -8 -101 19 -20 16 -25 29
    -25 66 0 40 5 51 34 77 41 37 82 33 124 -12z"/>
    <path d="M1928 4624 c-41 -21 -61 -68 -54 -119 8 -48 37 -81 86 -95 68 -20
    150 46 150 120 0 83 -104 137 -182 94z"/>
    <path d="M3887 4392 c-33 -20 -62 -90 -53 -128 4 -15 20 -39 36 -55 24 -24 37
    -29 78 -29 41 0 55 5 81 29 30 28 36 50 31 110 -6 75 -104 116 -173 73z"/>
    <path d="M3967 3206 c-80 -29 -121 -91 -121 -183 0 -54 5 -69 30 -105 41 -58
    86 -83 154 -83 67 1 124 30 160 82 21 31 25 48 25 108 0 62 -4 77 -28 113 -48
    68 -142 97 -220 68z m96 -97 c88 -45 67 -169 -28 -169 -44 0 -95 45 -95 83 0
    40 52 93 93 96 5 1 18 -4 30 -10z"/>
    <path d="M1389 2855 c-60 -33 -80 -126 -37 -180 60 -76 163 -63 203 26 17 37
    17 44 3 82 -26 73 -105 107 -169 72z"/>
    <path d="M3592 2363 c-72 -35 -99 -121 -63 -196 26 -53 67 -77 134 -77 50 0
    104 30 125 70 21 41 11 134 -19 166 -48 52 -117 67 -177 37z"/>
    </g>
  </g>
</svg>
