<?xml version="1.0" encoding="UTF-8"?>
<svg xmlns="http://www.w3.org/2000/svg" width="490" height="370" viewBox="330.8 10.8 248.4 248.4" aria-label="Insect wing pattern figure">
  <g transform="rotate(-18 455 135)">
    <g transform="translate(0,433) scale(0.1,-0.1)" fill="#0f4a35" stroke="none">
      <path d="M3932 3608 c-22 -29 -21 -63 4 -214 47 -286 77 -350 178 -379 28 -8 65 -16 81 -18 l30 -3 -36 -17 c-150 -68 -172 -202 -55 -333 75 -85 158 -114 225 -80 65 34 134 148 160 266 7 30 15 64 18 74 3 12 17 -19 37 -85 64 -211 151 -295 268 -260 50 16 122 81 159 146 59 103 26 205 -85 262 l-51 26 60 12 c83 17 107 28 141 67 34 38 41 63 78 253 39 198 42 239 21 271 -16 25 -20 26 -80 22 -76 -7 -139 -38 -229 -117 -126 -109 -213 -233 -276 -389 -29 -74 -50 -97 -50 -55 0 21 -75 179 -108 228 -105 157 -217 262 -333 315 -50 22 -141 27 -157 8z"/>
    </g>
  </g>
</svg>
