<?xml version="1.0" encoding="UTF-8"?>
<svg xmlns="http://www.w3.org/2000/svg" width="340" height="360" viewBox="110 116 340 360" aria-label="Mammal paw pattern figure">
  <g transform="rotate(-18 280 296)">
    <g transform="translate(0,1086) scale(0.1,-0.1)" fill="#0f4a35" stroke="none">
    <path d="M2162 9404 c-106 -39 -201 -172 -223 -314 -42 -269 76 -542 281 -651
    63 -34 195 -34 257 -1 63 33 117 91 151 163 38 82 52 149 52 256 0 126 -17
    207 -62 303 -48 100 -139 198 -215 232 -63 28 -181 34 -241 12z m210 -142
    c124 -72 194 -233 186 -421 -6 -121 -28 -188 -82 -245 -84 -91 -194 -80 -293
    27 -138 149 -172 418 -75 577 56 91 170 118 264 62z"/>
    <path d="M3205 9407 c-62 -21 -96 -42 -145 -90 -97 -93 -154 -216 -181 -385
    -15 -94 -6 -170 33 -289 63 -191 249 -280 422 -200 81 37 171 131 218 227 60
    123 72 178 73 325 0 113 -3 138 -23 190 -38 96 -95 163 -177 207 -50 26 -162
    34 -220 15z m175 -132 c77 -41 121 -129 128 -258 12 -236 -140 -477 -300 -477
    -79 0 -138 45 -180 135 -20 44 -23 65 -22 175 1 142 19 212 77 302 48 73 87
    108 149 129 56 20 102 18 148 -6z"/>
    <path d="M1459 8667 c-127 -48 -210 -195 -195 -346 15 -149 67 -261 171 -366
    42 -42 90 -81 119 -94 205 -94 392 -7 442 206 17 70 17 81 3 167 -31 179 -143
    343 -283 411 -70 34 -196 45 -257 22z m196 -131 c121 -56 214 -204 223 -354 7
    -130 -31 -202 -123 -232 -75 -25 -180 21 -256 112 -85 102 -131 241 -111 337
    30 142 138 198 267 137z"/>
    <path d="M3878 8661 c-73 -29 -113 -57 -172 -122 -58 -65 -112 -160 -141 -249
    -28 -85 -25 -219 8 -290 31 -69 77 -115 146 -147 46 -22 63 -25 135 -21 97 5
    164 34 243 103 62 54 133 164 164 255 26 76 32 237 11 306 -17 57 -86 132
    -147 160 -64 30 -177 32 -247 5z m199 -118 c19 -9 47 -34 61 -56 24 -36 27
    -50 27 -126 0 -100 -24 -175 -81 -252 -76 -104 -162 -158 -250 -159 -168 -1
    -219 224 -98 426 19 32 45 70 57 83 30 32 103 82 135 91 45 14 112 11 149 -7z"/>
    <path d="M2605 8261 c-89 -27 -110 -37 -173 -80 -93 -65 -164 -140 -255 -269
    -52 -74 -86 -110 -132 -144 -64 -46 -182 -166 -209 -212 -50 -86 -68 -162 -64
    -271 3 -92 7 -106 42 -178 48 -96 121 -166 224 -215 63 -30 87 -36 167 -40
    107 -5 188 14 307 74 90 45 166 64 260 64 106 0 166 -15 290 -71 127 -58 168
    -68 271 -69 316 -1 533 309 429 613 -30 89 -86 162 -201 260 -113 96 -138 124
    -209 231 -87 132 -225 247 -352 295 -90 34 -304 40 -395 12z m300 -115 c156
    -43 220 -97 396 -334 36 -49 101 -117 158 -166 148 -128 179 -171 201 -283 21
    -105 -17 -220 -96 -293 -55 -50 -105 -75 -182 -90 -83 -17 -141 -4 -285 59
    -140 62 -171 70 -282 77 -117 8 -201 -10 -348 -74 -132 -58 -209 -76 -277 -67
    -57 8 -154 52 -190 86 -126 120 -146 302 -48 446 26 39 55 66 181 173 59 49
    126 125 175 200 50 75 146 170 207 206 120 70 271 93 390 60z"/>
    <path d="M2215 6656 c-110 -18 -202 -49 -319 -109 -128 -67 -157 -111 -95
    -146 24 -13 30 -11 95 27 148 88 315 133 499 133 148 1 228 -15 445 -87 254
    -85 313 -98 465 -97 180 1 287 26 444 106 101 52 128 110 65 139 -20 9 -32 6
    -81 -24 -146 -90 -276 -122 -466 -116 -142 5 -132 3 -487 126 -164 57 -384 76
    -565 48z"/>
    <path d="M2385 6298 c-92 -9 -171 -31 -245 -68 -56 -28 -60 -33 -60 -65 0 -56
    26 -62 112 -26 207 86 342 82 637 -20 246 -84 397 -97 570 -49 94 26 129 45
    143 75 9 21 8 29 -8 46 -21 24 -38 22 -129 -12 -75 -27 -245 -37 -338 -20 -34
    7 -141 39 -239 72 -192 65 -299 81 -443 67z"/>
    </g>
  </g>
</svg>
