<?xml version="1.0" encoding="UTF-8"?>
<svg xmlns="http://www.w3.org/2000/svg" width="340" height="310" viewBox="3.9 186.5 262.2 207" aria-label="Fungi mycelium pattern figure">
  <g transform="rotate(-18 135 290)">
    <g transform="translate(0,433) scale(0.1,-0.1)" fill="#0f4a35" stroke="none">
      <path d="M1175 1950 c-86 -35 -93 -155 -11 -194 l36 -17 0 -88 c0 -101 -19 -176 -61 -241 -29 -45 -239 -259 -239 -243 0 37 32 189 50 236 18 48 28 62 55 73 70 29 85 95 35 146 -27 26 -36 30 -67 25 -19 -4 -44 -14 -54 -23 -28 -25 -35 -79 -14 -110 16 -25 16 -29 -9 -88 -14 -33 -30 -85 -36 -115 -6 -30 -12 -56 -14 -58 -2 -3 -18 15 -34 39 -17 24 -37 50 -45 56 -10 9 -13 25 -10 57 5 39 2 47 -25 75 -41 40 -83 41 -123 1 -31 -31 -38 -75 -18 -113 13 -24 74 -51 99 -43 42 13 119 -129 127 -235 7 -85 -26 -183 -88 -265 -24 -31 -48 -63 -53 -70 -15 -20 1 -45 28 -45 16 0 45 17 76 45 85 76 147 79 236 11 78 -60 168 -70 198 -23 20 32 -4 51 -72 57 -52 4 -66 10 -93 36 l-31 32 72 23 c40 12 88 33 106 45 28 19 38 21 63 13 80 -28 145 94 79 148 -57 48 -137 8 -143 -72 -1 -23 -66 -59 -135 -74 -131 -30 -175 -39 -178 -37 -1 2 10 34 24 73 52 141 129 208 254 219 109 10 185 40 240 94 26 26 51 57 55 69 4 13 15 21 28 21 40 0 85 36 92 73 12 60 -25 106 -85 107 -67 0 -113 -60 -91 -121 13 -39 5 -55 -54 -107 -48 -42 -104 -62 -176 -62 l-43 0 26 28 c79 84 123 221 115 356 -6 86 -5 91 19 112 32 31 34 109 3 143 -34 36 -75 48 -114 31z"/>
      <path d="M816 1834 c-23 -22 -20 -71 3 -84 44 -23 91 -1 91 44 0 47 -62 73 -94 40z"/>
      <path d="M1590 1727 c-19 -10 -25 -20 -25 -47 0 -29 5 -36 28 -44 39 -14 62 2 62 44 0 43 -29 65 -65 47z"/>
      <path d="M1623 1271 c-31 -29 -37 -58 -18 -87 36 -55 95 -54 131 2 17 25 17 28 -2 63 -15 29 -25 37 -54 39 -24 2 -42 -3 -57 -17z"/>
      <path d="M580 1111 c-22 -41 1 -81 45 -81 45 0 67 67 31 92 -22 15 -65 8 -76 -11z"/>
      <path d="M1490 948 c-41 -45 -14 -108 47 -108 57 0 84 69 43 110 -26 26 -64 25 -90 -2z"/>
    </g>
  </g>
</svg>
