<?xml version="1.0" encoding="UTF-8"?>
<svg xmlns="http://www.w3.org/2000/svg" width="310" height="330" viewBox="211.5 -7.3 207 234.6" aria-label="Bird feather pattern figure">
  <g transform="rotate(-18 315 110)">
    <g transform="translate(0,433) scale(0.1,-0.1)" fill="#0f4a35" stroke="none">
      <path d="M3133 3741 c-165 -60 -330 -250 -373 -429 -7 -29 -14 -51 -17 -48 -3 2 -10 28 -17 58 -6 29 -16 52 -21 51 -19 -3 -76 -122 -96 -202 -14 -55 -20 -104 -17 -151 3 -78 -6 -84 -37 -27 -32 60 -55 45 -55 -36 0 -81 44 -181 96 -220 l24 -18 38 78 c73 151 172 315 226 378 17 19 -1 -25 -51 -125 -99 -197 -123 -250 -167 -380 -56 -167 -58 -220 -5 -220 23 0 34 22 43 80 4 25 14 66 22 93 14 42 19 47 44 47 96 0 212 48 298 123 99 86 121 146 47 126 -20 -6 -52 -9 -73 -7 l-37 3 59 29 c33 16 90 58 127 93 54 52 77 84 113 156 37 75 70 187 55 187 -2 0 -22 -7 -44 -15 -71 -25 -78 -18 -29 27 66 60 88 109 88 188 0 152 -92 214 -241 161z"/>
    </g>
  </g>
</svg>
