<?xml version="1.0" encoding="UTF-8"?>
<svg xmlns="http://www.w3.org/2000/svg" width="270" height="450" viewBox="570 546 270 450" aria-label="Plant leaf pattern figure">
  <g transform="rotate(-18 705 771)">
    <g transform="translate(0,1086) scale(0.1,-0.1)" fill="#0f4a35" stroke="none">
    <path d="M6948 4957 c-65 -33 -377 -349 -480 -487 -184 -249 -304 -486 -367
    -725 -85 -327 -66 -661 54 -960 88 -217 186 -364 352 -527 108 -107 163 -151
    284 -226 52 -33 99 -70 106 -83 6 -13 17 -71 23 -129 6 -58 20 -145 31 -195
    17 -73 26 -95 51 -119 27 -24 36 -27 72 -23 42 6 76 35 76 65 0 9 -16 53 -35
    98 -42 97 -78 256 -65 288 5 13 47 46 102 78 140 84 212 140 328 257 232 232
    363 482 419 794 38 210 37 373 -3 588 -66 355 -279 735 -601 1068 -120 124
    -257 247 -284 254 -11 3 -39 -5 -63 -16z m237 -298 c312 -321 521 -680 589
    -1009 40 -199 44 -324 17 -515 -55 -370 -234 -667 -556 -923 -55 -44 -180
    -122 -195 -122 -14 0 -19 27 -26 160 l-6 126 33 54 c76 125 190 273 335 434
    49 54 107 121 129 148 37 48 38 51 24 76 -10 19 -24 28 -45 30 -28 3 -41 -7
    -121 -95 -50 -54 -117 -129 -149 -168 -33 -38 -69 -81 -82 -95 -13 -14 -38
    -48 -57 -76 -67 -101 -65 -107 -65 180 0 283 0 281 66 384 62 94 226 301 318
    400 74 79 86 97 86 127 0 35 -20 55 -54 55 -27 0 -289 -289 -364 -403 -14 -21
    -28 -34 -31 -30 -4 4 -4 94 0 198 4 105 7 276 8 382 1 181 0 193 -18 203 -11
    5 -29 10 -40 10 -44 0 -48 -25 -61 -410 -14 -437 -20 -542 -31 -538 -4 2 -43
    51 -87 109 -121 163 -251 309 -275 309 -28 0 -57 -28 -57 -56 0 -13 23 -50 53
    -85 144 -171 224 -274 291 -374 l75 -110 3 -458 c2 -376 1 -457 -10 -457 -31
    0 -175 113 -288 225 -211 210 -343 449 -399 720 -22 109 -30 327 -16 453 32
    293 174 605 419 921 75 97 299 331 356 372 l39 29 36 -29 c20 -16 90 -84 156
    -152z"/>
    </g>
  </g>
</svg>
