<?xml version="1.0" encoding="UTF-8"?>
<svg xmlns="http://www.w3.org/2000/svg" width="400" height="370" viewBox="930 596 400 370" aria-label="Fish scale pattern figure">
  <g transform="rotate(-18 1130 781)">
    <g transform="translate(0,1086) scale(0.1,-0.1)" fill="#0f4a35" stroke="none">
    <path d="M11323 4585 c-12 -8 -24 -29 -28 -46 -30 -134 -140 -322 -252 -430
    -158 -152 -336 -237 -538 -258 -108 -12 -111 -16 -117 -178 -9 -216 -81 -366
    -236 -488 -97 -78 -280 -155 -366 -155 -14 0 -36 -10 -47 -21 -31 -31 -22 -98
    29 -203 124 -259 311 -425 572 -507 67 -21 94 -24 245 -24 197 0 257 13 408
    93 150 79 280 205 346 335 14 28 33 53 41 55 10 1 27 -21 49 -65 45 -88 197
    -242 296 -300 196 -115 407 -150 636 -107 88 16 249 85 332 142 59 41 159 144
    211 217 75 104 146 258 146 314 0 38 -36 67 -93 75 -141 21 -284 94 -393 201
    -134 131 -186 264 -185 463 1 116 -10 137 -71 146 -216 31 -312 63 -436 146
    -145 95 -221 174 -310 320 -36 61 -92 201 -92 232 0 8 -10 24 -23 36 -28 26
    -92 30 -124 7z m74 -197 c5 -13 20 -45 32 -73 122 -272 396 -491 699 -560 87
    -20 87 -22 32 -129 -121 -237 -304 -391 -547 -461 -289 -84 -594 -8 -815 203
    -92 88 -154 173 -204 280 -41 87 -38 95 39 107 175 30 407 167 540 319 61 70
    167 232 167 255 0 15 33 81 40 81 4 0 11 -10 17 -22z m-860 -885 c67 -117 194
    -252 309 -328 111 -74 332 -155 423 -155 53 0 57 -11 38 -90 -54 -224 -242
    -425 -472 -503 -210 -71 -388 -60 -592 38 -114 56 -237 168 -311 283 -54 86
    -87 161 -75 173 4 4 37 15 73 24 200 51 389 196 487 375 33 60 73 169 73 198
    0 17 8 32 16 32 2 0 15 -21 31 -47z m1742 16 c6 -18 11 -41 11 -51 0 -30 39
    -116 85 -188 105 -162 280 -288 468 -336 36 -9 68 -22 71 -29 12 -32 -98 -206
    -190 -299 -175 -178 -431 -266 -660 -225 -142 25 -266 80 -370 166 -57 46
    -156 168 -188 232 -27 53 -72 208 -63 217 3 3 52 14 109 24 209 36 368 121
    528 280 63 62 132 152 157 204 21 44 28 45 42 5z"/>
    <path d="M10360 1953 c-116 -12 -280 -64 -379 -120 -98 -56 -123 -101 -80
    -144 25 -25 47 -21 126 25 73 43 206 89 303 107 41 7 140 13 220 13 163 0 286
    -21 550 -95 317 -89 421 -109 571 -109 142 0 255 24 524 110 66 21 155 46 197
    54 150 31 327 15 445 -41 67 -31 112 -28 132 8 13 24 13 29 -3 54 -10 15 -45
    40 -79 56 -202 93 -417 90 -732 -11 -238 -77 -298 -90 -435 -97 -152 -7 -272
    10 -475 68 -376 107 -503 130 -711 127 -77 0 -155 -3 -174 -5z"/>
    </g>
  </g>
</svg>
