<?xml version="1.0" encoding="UTF-8"?>
<svg xmlns="http://www.w3.org/2000/svg" width="310" height="330" viewBox="620 96 310 330" aria-label="Bird feather pattern figure">
  <g transform="rotate(-18 775 261)">
    <g transform="translate(0,1086) scale(0.1,-0.1)" fill="#0f4a35" stroke="none">
    <path d="M8070 9550 c-183 -23 -376 -104 -576 -241 -100 -68 -297 -264 -353
    -349 -83 -127 -161 -312 -186 -437 -17 -84 -41 -38 -58 107 -12 102 -13 105
    -39 108 -32 4 -71 -42 -145 -168 -140 -240 -224 -547 -225 -817 0 -75 -4 -133
    -9 -133 -16 0 -68 90 -84 145 -19 65 -36 82 -70 67 -37 -17 -48 -76 -48 -247
    0 -130 3 -162 25 -240 49 -174 114 -289 237 -417 86 -91 83 -64 27 -313 -38
    -170 -62 -358 -52 -399 8 -33 59 -60 95 -51 49 12 61 32 61 104 0 110 53 466
    75 500 4 7 59 11 152 11 239 0 410 46 623 168 164 94 345 268 411 394 23 45
    23 52 4 72 -13 13 -34 14 -125 9 -64 -3 -110 -2 -110 3 0 5 29 28 63 51 131
    88 298 251 404 393 140 187 274 492 243 550 -13 24 -24 24 -115 5 -38 -8 -71
    -12 -74 -9 -3 2 29 39 71 82 163 167 230 322 231 537 1 201 -9 379 -21 402
    -47 86 -244 137 -432 113z m251 -125 c24 -9 54 -25 66 -37 21 -19 23 -30 22
    -97 -1 -42 1 -123 6 -181 16 -228 -54 -393 -247 -575 -87 -83 -190 -150 -325
    -211 -90 -40 -98 -46 -98 -71 0 -39 34 -41 144 -8 98 28 293 65 348 65 33 0
    35 -1 28 -27 -23 -97 -165 -331 -261 -433 -23 -25 -52 -57 -63 -72 -32 -41
    -238 -210 -317 -262 -100 -64 -265 -143 -352 -168 -51 -15 -79 -29 -89 -45
    -33 -50 32 -68 133 -38 69 20 221 43 343 51 l103 7 -7 -24 c-18 -62 -214 -221
    -360 -293 -181 -90 -328 -122 -530 -117 -84 2 -92 9 -76 63 18 62 107 308 148
    408 183 448 483 952 748 1260 84 96 124 141 167 185 57 60 66 105 22 105 -21
    0 -53 -25 -137 -107 -289 -284 -580 -707 -800 -1163 -49 -102 -93 -196 -99
    -210 -6 -14 -16 -38 -23 -55 -17 -38 -47 -113 -75 -190 -12 -33 -29 -75 -36
    -93 -8 -18 -14 -36 -14 -41 0 -5 -7 -25 -16 -46 l-15 -38 -40 39 c-129 126
    -219 311 -234 485 l-6 74 28 -31 c15 -18 63 -77 106 -133 69 -89 82 -102 105
    -99 34 4 34 26 2 158 -19 78 -23 124 -24 260 -1 177 15 296 59 440 50 162 140
    359 157 342 4 -4 15 -35 23 -67 9 -32 35 -104 59 -159 24 -56 47 -112 51 -126
    10 -34 24 -50 44 -50 39 1 43 13 46 166 3 151 13 207 66 368 75 232 274 467
    529 626 201 126 361 179 541 180 71 0 121 -5 150 -15z"/>
    </g>
  </g>
</svg>
