<?xml version="1.0" encoding="UTF-8"?>
<svg xmlns="http://www.w3.org/2000/svg" width="270" height="450" viewBox="191.5 179.85 207 255.3" aria-label="Plant leaf pattern figure">
  <g transform="rotate(-10 295 307.5)">
    <g transform="translate(0,433) scale(0.1,-0.1)" fill="#0f4a35" stroke="none">
      <path d="M2700 1863 c-47 -49 -107 -120 -132 -158 -58 -88 -115 -226 -129 -314 -17 -110 6 -250 59 -356 40 -81 136 -179 216 -221 54 -28 54 -29 61 -84 12 -105 36 -141 80 -124 18 7 18 29 -1 134 -6 35 -5 37 53 73 92 56 177 146 221 233 74 145 87 309 37 464 -43 136 -140 279 -258 385 -89 79 -100 77 -207 -32z m130 -421 c0 -97 10 -182 21 -182 5 0 27 18 50 41 29 29 44 38 52 30 8 -8 -7 -37 -52 -103 l-64 -92 -8 -105 c-4 -58 -8 -115 -8 -125 -1 -13 -4 -17 -11 -10 -5 5 -13 57 -16 114 -7 114 -10 122 -78 223 -42 62 -58 107 -38 107 4 0 26 -23 50 -50 24 -28 47 -50 52 -50 4 0 11 57 15 128 7 138 12 165 26 157 5 -4 9 -41 9 -83z"/>
    </g>
  </g>
</svg>
