<?xml version="1.0" encoding="UTF-8"?>
<svg xmlns="http://www.w3.org/2000/svg" width="340" height="360" viewBox="8.9 3.9 262.2 262.2" aria-label="Mammal paw pattern figure">
  <g transform="rotate(-10 140 135)">
    <g transform="translate(0,433) scale(0.1,-0.1)" fill="#0f4a35" stroke="none">
      <path d="M981 3616 c-44 -16 -68 -46 -87 -112 -16 -56 -14 -83 13 -167 19 -62 77 -107 136 -107 56 0 110 55 125 127 34 155 -71 301 -187 259z"/>
      <path d="M1349 3605 c-31 -17 -76 -80 -89 -126 -14 -49 -12 -134 4 -173 21 -50 60 -76 116 -76 39 0 53 6 87 35 91 77 103 261 22 330 -35 29 -97 33 -140 10z"/>
      <path d="M641 3355 c-62 -53 -66 -160 -8 -255 113 -187 323 -57 236 147 -49 115 -158 166 -228 108z"/>
      <path d="M1638 3330 c-89 -47 -147 -196 -107 -273 61 -114 213 -69 272 81 58 146 -39 258 -165 192z"/>
      <path d="M1090 3169 c-59 -26 -82 -49 -141 -136 -27 -40 -53 -73 -57 -73 -15 0 -90 -77 -107 -111 -25 -47 -24 -133 3 -185 11 -22 40 -53 63 -70 60 -41 147 -41 238 0 56 25 73 28 130 24 42 -4 82 -14 110 -29 58 -30 151 -31 206 -3 64 33 98 84 103 153 6 89 -9 121 -94 197 -40 36 -84 83 -95 103 -61 101 -143 151 -249 150 -42 0 -81 -7 -110 -20z"/>
    </g>
  </g>
</svg>
