<?xml version="1.0" encoding="UTF-8"?>
<svg xmlns="http://www.w3.org/2000/svg" width="400" height="370" viewBox="323.9 187.7 262.2 234.6" aria-label="Fish scale pattern figure">
  <g transform="rotate(-10 455 305)">
    <g transform="translate(0,433) scale(0.1,-0.1)" fill="#0f4a35" stroke="none">
      <path d="M4430 1819 c-19 -6 -47 -22 -62 -37 -49 -45 -49 -47 22 -527 17 -115 29 -216 28 -224 -2 -9 -25 95 -51 229 -85 432 -92 451 -158 465 -41 9 -114 -26 -139 -67 -33 -54 -25 -96 50 -253 15 -33 58 -123 94 -200 37 -77 76 -157 87 -178 11 -20 19 -42 17 -47 -3 -9 -78 124 -176 310 -119 227 -123 232 -171 228 -46 -4 -81 -53 -81 -113 0 -55 24 -91 203 -305 80 -96 143 -177 140 -180 -2 -3 -14 6 -25 19 -24 30 -195 217 -260 284 -52 54 -75 57 -96 15 -18 -39 0 -99 45 -149 40 -44 140 -126 256 -209 43 -30 77 -55 77 -55 0 -1 -15 1 -34 3 -29 3 -34 1 -40 -21 -9 -36 9 -76 39 -87 15 -6 53 -10 85 -10 42 0 72 -7 102 -22 59 -31 149 -31 199 0 29 17 51 22 106 22 56 0 76 4 97 21 44 35 33 99 -18 99 -27 1 -29 2 -12 12 10 5 71 50 135 98 183 137 231 194 231 273 0 36 -15 57 -41 57 -15 0 -187 -174 -313 -315 -20 -22 -36 -36 -36 -32 0 8 57 79 219 271 51 61 100 125 107 143 31 72 9 162 -43 181 -56 19 -66 8 -173 -193 -105 -198 -193 -355 -197 -351 -2 2 23 59 55 127 102 212 158 332 186 391 37 80 35 137 -5 183 -54 61 -136 69 -182 17 -14 -16 -42 -141 -109 -477 -16 -82 -34 -166 -39 -185 -7 -31 -8 -29 -4 15 2 28 15 127 29 220 68 467 68 460 30 504 -14 18 -34 35 -43 40 -28 15 -95 20 -131 10z"/>
    </g>
  </g>
</svg>
