<?xml version="1.0" standalone="no"?>
<!DOCTYPE svg PUBLIC "-//W3C//DTD SVG 20010904//EN"
 "http://www.w3.org/TR/2001/REC-SVG-20010904/DTD/svg10.dtd">
<svg version="1.0" xmlns="http://www.w3.org/2000/svg"
 width="500.000000pt" height="500.000000pt" viewBox="0 0 500.000000 500.000000"
 preserveAspectRatio="xMidYMid meet">

<g transform="translate(0.000000,500.000000) scale(0.100000,-0.100000)"
fill="#000000" stroke="none">
<path d="M2252 3812 c-111 -40 -174 -124 -180 -245 -5 -86 8 -137 65 -253 37
-76 46 -105 47 -150 0 -52 -2 -59 -33 -86 -28 -25 -40 -29 -68 -25 -55 9 -93
47 -157 153 -86 142 -109 169 -178 203 -146 74 -289 21 -358 -131 -40 -88 -16
-198 62 -283 46 -51 74 -68 253 -150 129 -60 172 -142 105 -199 -44 -36 -104
-42 -227 -21 -61 11 -126 16 -161 12 -143 -12 -231 -113 -232 -262 0 -159 106
-265 267 -265 53 0 85 8 176 44 171 67 230 68 266 5 23 -41 -5 -84 -100 -154
-147 -108 -209 -202 -217 -325 -4 -63 -1 -85 18 -128 43 -99 146 -159 258
-150 133 10 207 84 277 278 56 152 127 197 181 115 13 -19 15 -55 15 -192 l-1
-169 31 -62 c23 -47 41 -68 72 -86 138 -80 294 -40 354 91 35 75 29 174 -16
285 -47 115 -41 183 18 207 52 22 94 -10 180 -142 57 -86 107 -127 183 -153
154 -51 318 56 335 220 7 72 -10 125 -60 181 -34 39 -65 60 -157 103 -115 54
-137 69 -159 109 -37 70 23 143 118 143 21 0 82 -9 137 -21 139 -29 229 -14
305 53 73 64 101 217 59 316 -41 96 -138 152 -262 152 -41 0 -91 -11 -164 -35
-109 -37 -157 -42 -197 -24 -59 27 -60 107 -3 157 19 16 73 49 120 72 97 48
154 99 188 168 33 67 33 205 0 277 -94 205 -354 220 -481 28 -17 -25 -42 -83
-56 -128 -13 -45 -38 -99 -54 -121 -52 -72 -120 -81 -164 -22 -18 23 -19 39
-16 130 8 221 4 280 -20 329 -46 97 -132 151 -257 164 -44 4 -72 1 -112 -13z
m323 -1081 c95 -44 145 -124 145 -231 0 -154 -115 -259 -270 -248 -110 8 -210
100 -224 206 -14 110 33 208 126 262 44 25 64 30 118 30 42 0 79 -7 105 -19z"/>
</g>
</svg>
